# xmcd
#
# Track frame offsets:
#	150
#	91205
#	160267
#	195830
#	229857
#
# Disc length: 3605 seconds
#
# Revision: 1
# Processed by: cddbd v1.5.1PL0 Copyright (c) Steve Scherf et al.
# Submitted via: CDex 1.50Beta5
#
DISCID=2f0e1305
DTITLE=フルトヴェングラー クーレンカンプ BPO - シベリウス ヴァイオリン協奏曲など
DYEAR=1900
DGENRE=Classical
TTITLE0=交響詩 エン サガ
TTITLE1=Allegro moderato
TTITLE2=Adagio de molte
TTITLE3=Allegro manon tanto
TTITLE4=コリオラン 序曲
EXTD=
EXTT0=
EXTT1=
EXTT2=
EXTT3=
EXTT4=
PLAYORDER=
